<svg xmlns="http://www.w3.org/2000/svg" viewBox="0 0 300 300"><defs><style>.cls-1{fill:#008576;}.cls-2{fill:#fff;}</style></defs><g id="Capa_2" data-name="Capa 2"><g id="html_items"><g id="Grupo_186" data-name="Grupo 186"><g id="Logo_Home_Escritorio" data-name="Logo Home Escritorio"><circle id="Elipse_38" data-name="Elipse 38" class="cls-1" cx="150" cy="150" r="150"/><g id="Logo"><g id="Grupo_1" data-name="Grupo 1"><g id="Trazado_1" data-name="Trazado 1"><polygon class="cls-2" points="67.72 243.71 67.72 55.5 73.42 55.5 73.42 238.01 113.76 238.01 113.76 243.71 67.72 243.71"/><path class="cls-2" d="M72.91,56V238.51h40.35v4.69H68.21V56h4.7m1-1h-6.7V244.2h47.05v-6.69H73.91V55Z"/></g></g><g id="Grupo_2" data-name="Grupo 2"><g id="Trazado_2" data-name="Trazado 2"><path class="cls-2" d="M156.44,238c48.3-.27,87.51-39.83,87.51-88.42a87.9,87.9,0,0,0-84.65-88l-.52,0v87.56h-5.69V55.87h2.84a93.88,93.88,0,0,1,66.24,160.24,92.85,92.85,0,0,1-65.73,27.59Z"/><path class="cls-2" d="M155.93,56.37a93.37,93.37,0,0,1,65.88,159.38,92.35,92.35,0,0,1-64.87,27.45v-4.7c48.34-.54,87.51-40.22,87.51-88.93a88.39,88.39,0,0,0-85.13-88.44l-1,0v87.58h-4.69V56.37h2.34m0-1h-3.34v94.3h6.69V62.13a87.62,87.62,0,0,1,84.17,87.45c0,48.48-39.26,87.93-87.51,87.93v6.7c51.94,0,94.21-42.45,94.2-94.63a94.31,94.31,0,0,0-94.21-94.21Z"/></g></g></g></g><g id="Elipse_8" data-name="Elipse 8"><circle class="cls-2" cx="230.73" cy="236.46" r="7.75"/></g></g></g></g></svg>