<svg xmlns="http://www.w3.org/2000/svg" viewBox="0 0 300 300"><defs><style>.cls-1{fill:#ffb900;}.cls-2{fill:#fff;}</style></defs><g id="Capa_2" data-name="Capa 2"><g id="html_items"><g id="Grupo_186" data-name="Grupo 186"><g id="Logo_Home_Escritorio" data-name="Logo Home Escritorio"><circle id="Elipse_38" data-name="Elipse 38" class="cls-1" cx="150" cy="150" r="150"/><g id="Logo"><g id="Grupo_1" data-name="Grupo 1"><g id="Trazado_1" data-name="Trazado 1"><polygon class="cls-2" points="69.72 241.71 69.72 57.5 71.42 57.5 71.42 240.01 111.76 240.01 111.76 241.71 69.72 241.71"/><polygon class="cls-2" points="73.92 55 67.22 55 67.22 244.21 114.26 244.21 114.26 237.51 73.92 237.51 73.92 55 73.92 55"/></g></g><g id="Grupo_2" data-name="Grupo 2"><g id="Trazado_2" data-name="Trazado 2"><path class="cls-2" d="M155.94,244.21v-6.7c48.25,0,87.51-39.45,87.51-87.93a87.62,87.62,0,0,0-84.16-87.45v87.54h-6.7V55.37h3.34a94.31,94.31,0,0,1,94.21,94.21C250.15,201.76,207.88,244.21,155.94,244.21Z"/><path class="cls-2" d="M155.93,55.37h-3.34v94.3h6.7V62.13a87.62,87.62,0,0,1,84.16,87.45c0,48.48-39.26,87.93-87.51,87.93v6.7c51.94,0,94.21-42.45,94.2-94.63a94.31,94.31,0,0,0-94.21-94.21Z"/></g></g></g></g><g id="Elipse_8" data-name="Elipse 8"><circle class="cls-2" cx="230.73" cy="236.46" r="7.75"/></g></g></g></g></svg>