<svg xmlns="http://www.w3.org/2000/svg" viewBox="0 0 139.15 67.35"><defs><style>.cls-1{fill:#534741;}.cls-2{fill:#682412;}.cls-3{fill:#ee8700;}.cls-4{fill:#9b0d1e;}</style></defs><g id="Capa_2" data-name="Capa 2"><g id="html_items"><path id="Icon_awesome-pencil-ruler" data-name="Icon awesome-pencil-ruler" class="cls-1" d="M86.84,24.94l10.39-8.45-2.77-3.4L89.7,17a.55.55,0,0,1-.78-.08h0L88.21,16a.55.55,0,0,1,.08-.78h0l4.76-3.88L90.94,8.76a2.23,2.23,0,0,0-3.14-.32l-6.92,5.63a2.21,2.21,0,0,0-.32,3.13Zm28-5.38a3.37,3.37,0,0,0,.49-4.75l-2.84-3.49a3.37,3.37,0,0,0-4.75-.49l-3.55,2.89,7.1,8.73Zm-12.4-4.42L79.54,33.77l-2.09,7.39a1.49,1.49,0,0,0,1,1.84,1.45,1.45,0,0,0,.51,0l7.65-.54,22.92-18.64Zm11,21.31-2.11-2.59-4.76,3.87a.56.56,0,0,1-.78-.08h0l-.7-.87a.55.55,0,0,1,.08-.78L110,32.13l-2.77-3.41L96.79,37.17l6.29,7.73a2.24,2.24,0,0,0,3.14.32l6.92-5.63A2.23,2.23,0,0,0,113.46,36.45Z"/><g id="Grupo_204" data-name="Grupo 204"><g id="Grupo_203" data-name="Grupo 203"><rect id="Rectángulo_405" data-name="Rectángulo 405" class="cls-2" width="67.35" height="67.35" rx="8.98"/></g><path id="Icon_simple-adobeillustrator" data-name="Icon simple-adobeillustrator" class="cls-3" d="M23.57,38.13l-2.28,8.61c-.05.24-.14.3-.43.3H16.65c-.29,0-.33-.1-.29-.43L24.52,18a9.22,9.22,0,0,0,.28-2.4c0-.19.09-.28.24-.28h6c.19,0,.29.05.33.28l9.16,31c0,.23,0,.38-.24.38H35.57c-.24,0-.38-.06-.43-.25l-2.37-8.66h-9.2Zm8-4.67c-.8-3.18-2.7-10.14-3.41-13.5h-.05C27.5,23.32,26,29,24.79,33.46Zm12.93-16a2.94,2.94,0,0,1,5.88,0,2.75,2.75,0,0,1-2.55,2.94,3.23,3.23,0,0,1-.44,0A2.7,2.7,0,0,1,44.49,18a3.53,3.53,0,0,1,0-.46ZM44.82,24c0-.23.1-.31.34-.31h4.51c.25,0,.34.09.34.33V46.73c0,.23,0,.33-.33.33H45.23c-.29,0-.38-.15-.38-.38V24Z"/></g><path id="Icon_awesome-pen-nib" data-name="Icon awesome-pen-nib" class="cls-4" d="M118.86,50.59A3.91,3.91,0,0,0,120.11,54l13.31,11.94,1.17-.46-4.72-12a2.94,2.94,0,1,1,1.8-.71l4.72,12,1.17-.46,1.58-17.81a3.91,3.91,0,0,0-1.41-3.35l-7.39-6-10.2,4ZM124,28.94l-4.8,1.89a2.91,2.91,0,0,0-1.64,3.77l1.78,4.51,10.21-4-1.78-4.51A2.9,2.9,0,0,0,124,28.94Z"/></g></g></svg>