<svg xmlns="http://www.w3.org/2000/svg" viewBox="0 0 148.14 67.83"><defs><style>.cls-1{fill:#7b05d5;}.cls-2{fill:#d28fd0;}.cls-3{fill:#112e4a;}.cls-4{fill:#066394;}</style></defs><g id="Capa_2" data-name="Capa 2"><g id="html_items"><path id="Icon_awesome-bootstrap" data-name="Icon awesome-bootstrap" class="cls-1" d="M97.94,24.6c0,3-3,2.95-3.27,2.95h-6V21.72h6C97.84,21.72,97.94,24,97.94,24.6Zm-3.73-5.22c.05,0,2.85.07,2.85-2.59,0-1.11-.26-2.56-2.85-2.56H88.66v5.15ZM109.51,10V31.26A5.46,5.46,0,0,1,104,36.59H81.76a5.46,5.46,0,0,1-5.55-5.33V10a5.46,5.46,0,0,1,5.55-5.33H104A5.46,5.46,0,0,1,109.51,10ZM101.34,25a4.48,4.48,0,0,0-3.65-4.8v-.06a4.08,4.08,0,0,0,2.78-4c0-.5.15-4.62-5.77-4.62H85.26V30.22c9.53,0,10.4.12,12.16-.41A4.86,4.86,0,0,0,101.34,25Z"/><path id="Icon_simple-sass" data-name="Icon simple-sass" class="cls-2" d="M131.5,4.62c9.19,0,16.64,7.16,16.64,16s-7.45,16-16.64,16-16.64-7.15-16.64-16S122.31,4.62,131.5,4.62Zm-3.31,21.3a3.87,3.87,0,0,1,0,2.38l-.09.24a1.63,1.63,0,0,1-.11.23,4.34,4.34,0,0,1-.77,1.08c-1,1-2.32,1.39-2.9,1.07s-.31-1.78.81-2.91A11.36,11.36,0,0,1,128,26h0l.15-.08Zm13.75-14.46c-.76-2.84-5.66-3.77-10.29-2.19a23.69,23.69,0,0,0-7.9,4.35c-2.56,2.29-3,4.29-2.79,5.12.59,2.94,4.79,4.87,6.52,6.3h0c-.51.24-4.24,2-5.11,3.9s.14,3.35.85,3.53a5.32,5.32,0,0,0,6.41-3.95,5.43,5.43,0,0,0-.21-3.14,7,7,0,0,1,2.53-.14c2.92.32,3.5,2.08,3.37,2.8a2,2,0,0,1-.93,1.26c-.21.11-.27.16-.25.23s.12.12.29.1A2.23,2.23,0,0,0,136,27.68c.06-1.72-1.64-3.64-4.68-3.6a7.88,7.88,0,0,0-2.6.34.67.67,0,0,0-.15-.14c-1.87-1.93-5.34-3.29-5.2-5.86.05-.94.4-3.42,6.66-6.41,5.14-2.46,9.24-1.78,9.94-.28,1,2.13-2.18,6.11-7.53,6.69a4.17,4.17,0,0,1-3.37-.82c-.29-.3-.33-.32-.43-.26s-.06.34,0,.5a3.2,3.2,0,0,0,1.93,1.46,10.77,10.77,0,0,0,6.24-.6c3.23-1.2,5.74-4.54,5-7.33l.11.09Z"/><path id="Icon_awesome-less" data-name="Icon awesome-less" class="cls-3" d="M138.23,48.34c0-1.76.28-2.79.28-4.67,0-2.92-1.12-3.86-3.6-3.86h-1.83v2.07h.56c1.27,0,1.54.4,1.54,1.89s-.14,2.78-.14,4.4c0,2.06.7,2.87,2.1,3.18v.14c-1.4.32-2.1,1.12-2.1,3.19,0,1.61.14,2.92.14,4.4S134.85,61,133.64,61v0h-.56V63.2h1.83c2.47,0,3.6-.94,3.6-3.86,0-1.93-.28-2.92-.28-4.66,0-.94.6-1.93,2.43-2V50.33c-1.83-.06-2.43-1-2.43-2Zm-9.4,2.73c-1.41-.54-2.72-.85-2.72-1.75,0-.68.56-1.08,1.6-1.08a5.19,5.19,0,0,1,3,1.12L132.57,47a8.14,8.14,0,0,0-4.92-1.76c-3.18,0-5.33,1.76-5.33,4.23,0,2.19,2,3.32,3.69,3.94,1.45.54,2.86,1,2.86,1.89,0,.68-.56,1.12-1.83,1.12a6,6,0,0,1-3.6-1.39l-1.87,2.6a9.29,9.29,0,0,0,5.34,1.89c3.73,0,5.75-1.89,5.75-4.36S130.65,51.65,128.83,51.07Zm-32,5.07c-.33,0-.74-.27-.74-1.11V39.8H89.48c-2.52,0-3.65.94-3.65,3.86,0,1.93.29,3,.29,4.67,0,.94-.61,1.93-2.43,2v2.34c1.82,0,2.43,1,2.43,2,0,1.66-.29,2.65-.29,4.58,0,2.92,1.13,3.86,3.61,3.86h1.82V61H90.7c-1.16,0-1.54-.45-1.54-1.93s.14-2.74.14-4.4c0-2.07-.7-2.87-2.1-3.19v-.13c1.41-.32,2.1-1.12,2.1-3.19,0-1.61-.14-2.92-.14-4.4s.33-1.89,1.54-1.89H92V54.78c0,2.74,1,4.54,3.84,4.54A6.53,6.53,0,0,0,97.9,59l-.48-2.92a2,2,0,0,1-.55.07Zm20.63-5.07c-1.45-.54-2.76-.86-2.76-1.75,0-.68.56-1.08,1.6-1.08a5.19,5.19,0,0,1,3,1.12L121.2,47a8.16,8.16,0,0,0-4.92-1.76c-3.18,0-5.33,1.76-5.33,4.23,0,2.19,2,3.32,3.69,3.94,1.45.54,2.86,1,2.86,1.89,0,.68-.56,1.12-1.83,1.12a6,6,0,0,1-3.6-1.39l-1.82,2.6a9.26,9.26,0,0,0,5.33,1.89c3.74,0,5.75-1.89,5.75-4.36s-2-3.5-3.83-4.08Zm-13.8-5.88a6.67,6.67,0,0,0-6.61,6.72c0,.11,0,.22,0,.33a6.67,6.67,0,0,0,7.06,7,9.48,9.48,0,0,0,5-1.53l-1.41-2.37a6.13,6.13,0,0,1-3,.85,3.38,3.38,0,0,1-3.7-2.92h8.48a11.5,11.5,0,0,0,.14-1.66c0-3.64-2-6.47-5.94-6.47ZM101,50.85a2.76,2.76,0,0,1,2.72-2.65c1.68,0,2.34,1.12,2.34,2.65Z"/><path id="Icon_simple-css3" data-name="Icon simple-css3" class="cls-4" d="M0,0H61.84L56.22,60.94,30.85,67.83,5.63,60.94ZM50.33,12.47H11.51l.63,7.41H42l-.75,7.67H21.65l.71,7.28h18.2l-1.07,10-8.57,2.27-8.7-2.28-.56-6H14l.86,10.9,16.09,4.81,15.82-4.32,3.59-37.71Z"/></g></g></svg>