<svg xmlns="http://www.w3.org/2000/svg" viewBox="0 0 146.98 83.22"><defs><style>.cls-1{fill:#45bb4d;}.cls-2{fill:#cc147e;}.cls-3{font-size:22.73px;stroke:#240800;stroke-miterlimit:10;stroke-width:0.37px;font-family:MyriadPro-Regular, Myriad Pro;}</style></defs><g id="Capa_2" data-name="Capa 2"><g id="html_items"><path id="Icon_simple-mysql" data-name="Icon simple-mysql" d="M126.93,4.36a2.56,2.56,0,0,0-.73.08v0h0a7.72,7.72,0,0,0,.56.72c.15.28.27.56.41.84l0,0a1,1,0,0,0,.37-.88c-.11-.12-.12-.24-.22-.37s-.33-.26-.47-.4ZM98.85,39.19H96.4c-.08-4.13-.32-8-.71-11.65h0L92,39.19H90.09l-3.7-11.65h0q-.4,5.24-.51,11.65H83.62c.14-5.19.51-10.06,1.08-14.6h3l3.52,10.73h0l3.56-10.73h2.89q1,8,1.13,14.6Zm10.61-10.77q-1.5,8.09-3.94,11.77Q103.6,43,101.34,43a4.28,4.28,0,0,1-1.5-.36V41.35a7,7,0,0,0,1,.07,2.42,2.42,0,0,0,1.71-.59,2.1,2.1,0,0,0,.78-1.59,10.67,10.67,0,0,0-.61-2.49l-2.68-8.33h2.41l1.92,6.23a8.52,8.52,0,0,1,.54,3,40.37,40.37,0,0,0,2.2-9.19h2.33ZM142,39.19h-6.94V24.59h2.33v12.8H142Zm-8.76.35-2.68-1.32a5.22,5.22,0,0,0,.67-.66c1.14-1.33,1.71-3.32,1.71-5.94q0-7.26-5.69-7.25a5.39,5.39,0,0,0-4.35,1.84q-1.71,2-1.71,5.92t1.52,5.65a5.19,5.19,0,0,0,4.18,1.63,7.27,7.27,0,0,0,1.91-.26l3.5,2,1-1.64Zm-8.69-3.28a9,9,0,0,1-.89-4.58c0-3.68,1.12-5.51,3.35-5.52a2.84,2.84,0,0,1,2.58,1.32,9,9,0,0,1,.89,4.55c0,3.71-1.12,5.56-3.35,5.57a2.84,2.84,0,0,1-2.59-1.32Zm-4.37-1.12a3.84,3.84,0,0,1-1.37,3,5.32,5.32,0,0,1-3.65,1.19A7.33,7.33,0,0,1,111,38l.63-1.26a7,7,0,0,0,3.14.87,3.28,3.28,0,0,0,2.06-.58,2,2,0,0,0,.8-1.62c0-.88-.61-1.61-1.72-2.24s-3.07-1.73-3.07-1.73a3.5,3.5,0,0,1-1.66-3.11,3.6,3.6,0,0,1,1.24-2.86,4.68,4.68,0,0,1,3.22-1.1,6.67,6.67,0,0,1,3.7,1.09l-.57,1.25a7.12,7.12,0,0,0-2.81-.6,2.45,2.45,0,0,0-1.72.54,1.84,1.84,0,0,0-.66,1.38c0,.87.62,1.61,1.76,2.25s3.14,1.77,3.14,1.77a3.43,3.43,0,0,1,1.71,3.08Zm24.76-15.45a8.14,8.14,0,0,0-3.42.5c-.27.11-.69.11-.73.44.15.14.17.37.3.57a3.87,3.87,0,0,0,.91,1.07c.37.29.74.57,1.13.82.68.42,1.46.67,2.13,1.1.39.25.78.56,1.17.82.19.14.31.37.56.46v-.06c-.12-.15-.16-.38-.28-.56l-.53-.51a8.36,8.36,0,0,0-1.83-1.78c-.56-.39-1.8-.93-2-1.57l0,0a7.2,7.2,0,0,0,1.22-.28c.6-.16,1.15-.12,1.77-.28.28-.07.56-.16.84-.25V20c-.32-.31-.55-.74-.88-1a23.75,23.75,0,0,0-2.92-2.17c-.55-.35-1.25-.58-1.84-.88-.21-.11-.56-.16-.68-.34a6.54,6.54,0,0,1-.73-1.35c-.51-1-1-2-1.44-3.07a18.26,18.26,0,0,0-.9-2,17.82,17.82,0,0,0-6.83-6.6,8.63,8.63,0,0,0-2.26-.72c-.44,0-.88-.06-1.32-.07a8.39,8.39,0,0,1-.82-.62c-1-.64-3.6-2-4.34-.19-.47,1.14.71,2.27,1.12,2.85a7.83,7.83,0,0,1,.89,1.32c.13.31.16.62.29.94a20,20,0,0,0,.91,2.37A8.11,8.11,0,0,0,125,9.48c.14.19.38.28.44.6A5.06,5.06,0,0,0,125,11.4a7.82,7.82,0,0,0,.51,5.94c.29.44,1,1.41,1.86,1s.62-1.32.84-2.2c.06-.21,0-.35.13-.49v0c.25.5.5,1,.72,1.46a10.1,10.1,0,0,0,2.29,2.37c.42.31.76.86,1.29,1.06v-.06h0a2.3,2.3,0,0,0-.41-.35,10.17,10.17,0,0,1-.92-1.05,21.68,21.68,0,0,1-2-3.22c-.3-.55-.54-1.15-.77-1.69-.11-.22-.11-.53-.28-.64a6.69,6.69,0,0,0-.85,1.2,10.07,10.07,0,0,0-.49,2.66c-.08,0,0,0-.08,0-.56-.14-.75-.72-1-1.21a7.62,7.62,0,0,1-.16-4.72c.12-.37.65-1.53.44-1.89s-.46-.52-.66-.8a6.84,6.84,0,0,1-.63-1.12c-.42-1-.63-2.08-1.09-3.07a8.75,8.75,0,0,0-.89-1.35A9.51,9.51,0,0,1,122,2c-.08-.19-.21-.51-.07-.72a.32.32,0,0,1,.25-.24c.23-.19.88.06,1.11.17a8.2,8.2,0,0,1,1.75.88c.25.17.52.51.84.59h.37c.56.13,1.2,0,1.72.19a11.22,11.22,0,0,1,2.54,1.22,15.67,15.67,0,0,1,5.51,6c.21.41.3.78.5,1.2.36.88.82,1.75,1.2,2.6a11.11,11.11,0,0,0,1.25,2.36c.27.37,1.33.57,1.8.76a9.92,9.92,0,0,1,1.21.5c.61.37,1.2.79,1.77,1.2.29.2,1.17.64,1.23,1Z"/><path id="Exclusión_1" data-name="Exclusión 1" class="cls-1" d="M97,55c-1.91-8.39-6.4-11.15-6.89-12.21A14.2,14.2,0,0,1,89,40.61v.09h0a.15.15,0,0,0,0,.06v0h0s0,0,0,0v0h0v.07h0V41h0a.11.11,0,0,1,0,0h0s0,.05,0,.07v0h0v0h0v0h0v0h0v0h0v0h0v0h0v0h0v0h0v0h0v0h0v0h0v0h0s0,0,0,0h0v0h0v0h0v0h0v0h0v0h0v0h0v0h0v0h0v0h0v0h0l0,0h-.07v0h0v0h-.08v0h0v0h0v0h-.14l0,0h0l-.06.05,0,0h0l-.07.06h0l-.11.09h0l-.29.24h0c-.25.23-.55.51-.89.86l0,0h0a20.78,20.78,0,0,0-5.63,13.7,14.25,14.25,0,0,0,0,1.73v0a16.43,16.43,0,0,0,2.15,7.18h0a21,21,0,0,0,1.4,2.12h0a19.32,19.32,0,0,0,3.8,3.81,12.77,12.77,0,0,1,.6,4.2l1,.32A18,18,0,0,1,90.11,73a2.22,2.22,0,0,1,.53-1,12.51,12.51,0,0,0,1.2-1l.07-.08A17.25,17.25,0,0,0,97,55Z"/><path id="Icon_awesome-database" data-name="Icon awesome-database" class="cls-2" d="M64.45,20.08v6.58c0,5.79-14.43,10.52-32.22,10.52S0,32.46,0,26.66V20.08C0,14.29,14.43,9.56,32.23,9.56S64.45,14.29,64.45,20.08Zm0,14.8v14.8c0,5.8-14.43,10.52-32.22,10.52S0,55.48,0,49.68V34.88c6.92,4.77,19.6,7,32.23,7s25.3-2.22,32.22-7Zm0,23V72.7c0,5.8-14.43,10.52-32.22,10.52S0,78.49,0,72.7V57.9c6.92,4.77,19.6,7,32.23,7s25.3-2.22,32.22-7Z"/><text class="cls-3" transform="translate(99.11 69.38)">MDB</text></g></g></svg>