<svg xmlns="http://www.w3.org/2000/svg" viewBox="0 0 147.73 68.51"><defs><style>.cls-1{fill:#ff4e1d;}.cls-2{fill:#ff8e1d;}.cls-3{isolation:isolate;}</style></defs><g id="Capa_2" data-name="Capa 2"><g id="html_items"><g id="Icons"><path id="Icon_awesome-html5" data-name="Icon awesome-html5" class="cls-1" d="M0,0,5.62,60.53l25.23,8,25.38-8L61.86,0ZM49.65,19.56H20l.66,7.55H49L46.8,49.8,31,53.93v0h-.17L15,49.8,14,38.21h7.69L22.23,44l8.62,2.22L39.5,44l1-9.51H13.58L11.52,12.26H50.35l-.7,7.3Z"/><path id="Icon_material-computer" data-name="Icon material-computer" class="cls-2" d="M135.81,40.34c3.28,0,5.93-2.2,5.93-4.91l0-24.54c0-2.71-2.67-4.9-6-4.91H88.15a6.68,6.68,0,0,0-4.47,1.67A4.32,4.32,0,0,0,82.2,10.9V35.43c0,2.71,2.67,4.91,6,4.91H76.24v4.92h71.49V40.34ZM88.15,10.9h47.66V35.43H88.15Z"/><g id="SEO" class="cls-3"><g class="cls-3"><path d="M103.21,49.5l-2.11,1.87a3,3,0,0,0-2.27-1.55,1.38,1.38,0,0,0-.92.3.86.86,0,0,0-.36.68,1.15,1.15,0,0,0,.26.71,19.78,19.78,0,0,0,2.09,1.93c1.09.91,1.75,1.48,2,1.72a5.91,5.91,0,0,1,1.23,1.68,4.29,4.29,0,0,1-.91,4.8,4.66,4.66,0,0,1-3.33,1.2,5,5,0,0,1-2.79-.78,6.34,6.34,0,0,1-2-2.47l2.4-1.45c.73,1.32,1.56,2,2.5,2a1.84,1.84,0,0,0,1.23-.43,1.27,1.27,0,0,0,.5-1,1.66,1.66,0,0,0-.38-1,10.59,10.59,0,0,0-1.66-1.56A16.5,16.5,0,0,1,95.46,53a3.86,3.86,0,0,1-.71-2.16,3.52,3.52,0,0,1,1.19-2.68,4.14,4.14,0,0,1,2.93-1.12,4.73,4.73,0,0,1,2.14.52A7.8,7.8,0,0,1,103.21,49.5Z"/><path d="M106.21,47.46h8.19v2.8H109V53h5.36v2.74H109v3.95h5.36v2.8h-8.19Z"/><path d="M124.14,47.08a7.45,7.45,0,0,1,5.48,2.31,8,8,0,0,1,0,11.18,7.83,7.83,0,0,1-11.1-.07,7.89,7.89,0,0,1,5.59-13.42Zm0,2.8a4.69,4.69,0,0,0-3.5,1.45A5.05,5.05,0,0,0,119.19,55,4.78,4.78,0,0,0,121,58.94a4.87,4.87,0,0,0,3.18,1.14,4.63,4.63,0,0,0,3.46-1.47,5.3,5.3,0,0,0,0-7.25A4.66,4.66,0,0,0,124.11,49.88Z"/></g></g></g></g></g></svg>