<svg xmlns="http://www.w3.org/2000/svg" viewBox="0 0 148.64 65.07"><defs><style>.cls-1{fill:#ffb900;}.cls-2{fill:#d80505;}.cls-3{fill:#0071bc;}.cls-4{fill:#39b54a;}</style></defs><g id="Capa_2" data-name="Capa 2"><g id="html_items"><path id="Icon_simple-javascript" data-name="Icon simple-javascript" class="cls-1" d="M0,0H65.07V65.07H0ZM59.74,49.55c-.48-3-2.41-5.46-8.14-7.79-2-.94-4.22-1.59-4.88-3.09a3.2,3.2,0,0,1-.12-1.91C47,35,49.08,34.48,50.71,35a4.39,4.39,0,0,1,2.64,2.44c2.81-1.83,2.81-1.83,4.76-3a11,11,0,0,0-1.59-2.12c-1.71-1.91-4-2.88-7.68-2.8l-1.92.24a8.71,8.71,0,0,0-4.63,2.73,8.51,8.51,0,0,0,1.54,12.12c3.7,2.77,9.11,3.37,9.8,6,.65,3.17-2.36,4.18-5.33,3.82-2.2-.49-3.41-1.59-4.75-3.62l-5,2.85a11.09,11.09,0,0,0,2.19,3c4.72,4.76,16.51,4.52,18.63-2.72a9,9,0,0,0,.2-4.47l.13.18ZM35.38,29.9H29.29c0,5.26,0,10.48,0,15.74,0,3.34.17,6.41-.38,7.35-.89,1.87-3.2,1.63-4.24,1.3A5.15,5.15,0,0,1,22.4,52a2.32,2.32,0,0,0-.35-.53L17.1,54.49a9.69,9.69,0,0,0,3.59,4.12,12,12,0,0,0,8.7,1.09,7.63,7.63,0,0,0,4.91-3.82c1.38-2.52,1.09-5.61,1.07-9.07,0-5.57,0-11.14,0-16.75V29.9Z"/><path id="Icon_simple-angular" data-name="Icon simple-angular" class="cls-2" d="M110.74,18.6h5.77l-2.89-6.85m0-10.8L97.82,6.51l2.41,20.62,13.39,7.32L127,27.13l2.41-20.62L113.62,1Zm9.86,25.56h-3.69l-2-4.89h-8.38l-2,4.89h-3.69l9.86-21.86Z"/><path id="Icon_awesome-react" data-name="Icon awesome-react" class="cls-3" d="M106,44.16l-1.06-.34c.06-.24.12-.48.17-.72.8-3.9.28-7-1.51-8.07s-4.53,0-7.38,2.51l-.81.75c-.18-.17-.36-.34-.55-.5-3-2.65-6-3.76-7.75-2.72s-2.22,4-1.5,7.64c.08.37.16.73.25,1.09-.42.12-.84.25-1.22.39-3.5,1.22-6,3.12-6,5.1s2.67,4.09,6.31,5.34l.89.28q-.15.59-.27,1.17c-.68,3.64-.15,6.52,1.57,7.51s4.74,0,7.63-2.56c.23-.21.46-.41.69-.64.29.28.59.55.89.81,2.8,2.42,5.57,3.39,7.28,2.4s2.34-4.12,1.6-7.89c-.06-.28-.13-.58-.2-.88l.62-.19c3.77-1.25,6.51-3.27,6.51-5.35s-2.58-3.91-6.14-5.13ZM97.12,38.6c2.44-2.12,4.71-3,5.74-2.36s1.53,3.21.84,6.58c0,.22-.09.44-.15.65a34.31,34.31,0,0,0-4.41-.7,32.09,32.09,0,0,0-2.79-3.47c.26-.24.5-.47.77-.7ZM89.55,52.69c.33.57.67,1.14,1,1.69a28.3,28.3,0,0,1-3-.49A30.77,30.77,0,0,1,88.61,51q.45.87.93,1.71Zm-2-7.88c1-.21,2-.38,3-.51-.35.55-.69,1.1-1,1.67s-.63,1.12-.93,1.7c-.41-1-.76-1.93-1-2.86Zm1.8,4.51c.43-.9.9-1.78,1.39-2.65s1-1.72,1.6-2.55c1-.07,2-.11,3-.11s2,0,3,.11c.56.82,1.09,1.67,1.59,2.53s1,1.75,1.42,2.65Q100.71,50.65,100,52c-.5.87-1,1.71-1.58,2.55-1,.07-2,.11-3,.11s-2,0-3-.1c-.57-.83-1.1-1.68-1.61-2.55s-1-1.75-1.4-2.66Zm11.82,3.36c.34-.58.65-1.16,1-1.75a27.42,27.42,0,0,1,1.1,2.9,28.5,28.5,0,0,1-3.07.52c.35-.55.68-1.11,1-1.67Zm.95-5c-.31-.58-.63-1.15-.95-1.72s-.66-1.1-1-1.65a30.56,30.56,0,0,1,3,.53,27,27,0,0,1-1.06,2.84ZM95.38,40.3c.68.75,1.33,1.53,1.94,2.35q-1.95-.09-3.9,0c.64-.85,1.3-1.63,2-2.35Zm-7.6-4c1.1-.64,3.54.28,6.11,2.55l.5.46a34.75,34.75,0,0,0-2.81,3.48,34.39,34.39,0,0,0-4.4.68c-.08-.34-.15-.68-.23-1C86.34,39.28,86.75,36.88,87.78,36.29Zm-1.6,17.26-.82-.26a13.56,13.56,0,0,1-4.12-2,2.92,2.92,0,0,1-1.23-2c0-1.19,2.07-2.73,5-3.77.37-.13.76-.25,1.13-.36a37,37,0,0,0,1.61,4.17,37.15,37.15,0,0,0-1.63,4.22ZM93.81,60a11.83,11.83,0,0,1-3.69,2.31,2.9,2.9,0,0,1-2.31.09c-1-.6-1.48-2.91-.89-6,.07-.37.15-.74.25-1.1a31.66,31.66,0,0,0,4.44.64,34.08,34.08,0,0,0,2.83,3.5c-.21.2-.42.4-.63.58Zm1.6-1.59c-.66-.72-1.33-1.52-2-2.37.63,0,1.28,0,1.93,0s1.34,0,2,0a29.48,29.48,0,0,1-1.93,2.38Zm8.56,2a2.88,2.88,0,0,1-1.08,2c-1,.61-3.26-.18-5.66-2.23l-.83-.75a33.37,33.37,0,0,0,2.77-3.51,34,34,0,0,0,4.47-.69c.06.27.12.54.17.8a12,12,0,0,1,.17,4.34Zm1.19-7c-.18.06-.36.12-.56.17a31.39,31.39,0,0,0-1.67-4.18,31.69,31.69,0,0,0,1.61-4.12l1,.31c3,1.05,5.19,2.61,5.19,3.8s-2.28,2.94-5.55,4Zm-9.8-1a3,3,0,1,0-3-3h0A3,3,0,0,0,95.36,52.32Z"/><path id="Icon_awesome-vuejs" data-name="Icon awesome-vuejs" class="cls-4" d="M142,36.22h-5.63l-4.1,6.48-3.51-6.48H115.85L132.24,64.3l16.4-28.08Zm-22,2.34h3.94l8.38,14.51,8.38-14.51h3.93l-12.31,21.1Z"/></g></g></svg>