<svg xmlns="http://www.w3.org/2000/svg" viewBox="0 0 134.09 85.35"><defs><style>.cls-1{fill:#3fb22e;}.cls-2{fill:#a877d8;}.cls-3{fill:#ffc400;}.cls-4{fill:#05a8bb;}.cls-5{fill:#ffb900;}.cls-6{fill:#ce7602;}</style></defs><g id="Capa_2" data-name="Capa 2"><g id="html_items"><path id="Icon_awesome-laravel" data-name="Icon awesome-laravel" d="M86.49,75.8c-.17-.2-2.57-3.2-3-3.7s-.63-.42-.89-.38-3.29.55-3.64.6-.58.2-.36.51l2.63,3.72-7.93,1.9L67,67.91c-.25-.38-.3-.51-.88-.48s-4.94.39-5.25.42-.66.16-.35.9S65.8,80.19,65.94,80.5a1.06,1.06,0,0,0,1.34.62c.87-.21,3.86-1,5.5-1.42.86,1.56,2.63,4.74,3,5.19.43.61.73.51,1.4.31.52-.16,8.17-2.91,8.51-3s.56-.24.33-.59-2.19-3-3.25-4.37l3.57-1c.33-.08.37-.24.2-.43Zm-14.41,3-4.77,1.13c-.24.06-.24,0-.27,0s-5.28-10.91-5.35-11-.07-.24,0-.24L66,68.16c.14,0,.13,0,.18.12L72.13,78.5C72.23,78.67,72.17,78.73,72.08,78.75ZM84.6,81.1c.07.11.15.18-.08.26S77,83.9,76.86,84s-.25.08-.43-.18-2.55-4.37-2.55-4.37l7.72-2c.2-.07.26-.11.38.09S84.53,81,84.6,81.1Zm.5-5.49c-.17,0-3,.74-3,.74l-2.32-3.19c-.06-.09-.12-.18,0-.2l2.92-.53a.28.28,0,0,1,.36.14l2.23,2.84c.08.1,0,.16-.22.2Z"/><path id="Icon_awesome-node-js" data-name="Icon awesome-node-js" class="cls-1" d="M11.59,37a2.12,2.12,0,0,1-1-.27l-3.2-1.9c-.48-.27-.24-.36-.09-.41a6.34,6.34,0,0,0,1.45-.66.23.23,0,0,1,.24,0l2.46,1.46a.32.32,0,0,0,.3,0l9.58-5.54a.3.3,0,0,0,.15-.26V18.34a.33.33,0,0,0-.15-.27l-9.58-5.52a.27.27,0,0,0-.3,0L1.86,18.08a.3.3,0,0,0-.15.26V29.4a.3.3,0,0,0,.15.26l2.63,1.51c1.43.71,2.3-.12,2.3-1V19.28A.27.27,0,0,1,7.06,19H8.28a.27.27,0,0,1,.28.27V30.21a2.65,2.65,0,0,1-2.84,3,4.07,4.07,0,0,1-2.2-.6L1,31.15A2,2,0,0,1,0,29.4V18.34a2,2,0,0,1,1-1.75l9.57-5.53a2.07,2.07,0,0,1,2,0l9.58,5.53a2,2,0,0,1,1,1.75V29.4a2,2,0,0,1-1,1.75L12.6,36.69a2.12,2.12,0,0,1-1,.27Zm7.74-10.91c0-2.07-1.4-2.62-4.35-3s-3.28-.6-3.28-1.29S12,20.4,14.17,20.4c2,0,2.69.43,3,1.76a.29.29,0,0,0,.27.22h1.25a.31.31,0,0,0,.2-.09.28.28,0,0,0,.07-.21c-.19-2.29-1.71-3.36-4.78-3.36-2.74,0-4.37,1.15-4.37,3.09,0,2.1,1.63,2.68,4.25,2.94,3.14.31,3.38.77,3.38,1.38,0,1.07-.86,1.53-2.88,1.53-2.54,0-3.09-.63-3.28-1.9a.28.28,0,0,0-.28-.23H9.75a.27.27,0,0,0-.27.27h0c0,1.62.88,3.54,5.07,3.54,3,0,4.78-1.2,4.78-3.29Z"/><path id="Icon_simple-php" data-name="Icon simple-php" class="cls-2" d="M37.77,50.5H35.84l-1.06,5.42H36.5a4.17,4.17,0,0,0,2.55-.64,3.43,3.43,0,0,0,1.12-2.15,2.34,2.34,0,0,0-.25-2,2.92,2.92,0,0,0-2.15-.59ZM48,41.24c-13.58,0-24.59,5.79-24.59,12.93S34.42,67.11,48,67.11s24.58-5.8,24.58-12.94S61.58,41.24,48,41.24ZM41.32,56.51a5.17,5.17,0,0,1-1.88,1.13A9.06,9.06,0,0,1,36.8,58H34.39l-.68,3.45H30.89l2.52-13h5.43a4.52,4.52,0,0,1,3.58,1.29,4.06,4.06,0,0,1,.67,3.59,5.66,5.66,0,0,1-1.77,3.18ZM49.56,58l1.11-5.73a1.6,1.6,0,0,0-.13-1.34,2,2,0,0,0-1.41-.35H46.89L45.45,58h-2.8l2.52-13H48l-.67,3.44h2.49a4.83,4.83,0,0,1,3.25.83,2.72,2.72,0,0,1,.54,2.66l-1.17,6Zm15.57-4.64a5.68,5.68,0,0,1-.63,1.74,5.88,5.88,0,0,1-1.15,1.44,5,5,0,0,1-1.87,1.13,9.06,9.06,0,0,1-2.64.33H56.42l-.67,3.45H52.93l2.52-13h5.43a4.5,4.5,0,0,1,3.57,1.29,4,4,0,0,1,.68,3.59ZM59.81,50.5H57.88l-1.06,5.42h1.72a4.07,4.07,0,0,0,2.54-.64,3.39,3.39,0,0,0,1.13-2.15,2.34,2.34,0,0,0-.25-2,2.94,2.94,0,0,0-2.15-.59Z"/><g id="Icon_ionic-logo-javascript" data-name="Icon ionic-logo-javascript"><path id="Trazado_240" data-name="Trazado 240" class="cls-3" d="M41.52.6h-6V16.53c0,3.94-1.35,5-3.7,5A9,9,0,0,1,29,21.12l-.63,4.66a14,14,0,0,0,4.11.6c5.4,0,9.08-2.53,9.08-9.81Z"/><path id="Trazado_241" data-name="Trazado 241" class="cls-3" d="M54.59,0c-5.8,0-9.47,3.3-9.47,7.66,0,3.75,2.82,6.1,6.94,7.62,3,1.06,4.15,2,4.15,3.56,0,1.71-1.36,2.81-3.93,2.81a13.1,13.1,0,0,1-6-1.59h0l-1.13,4.73A14.84,14.84,0,0,0,52,26.38c6.79,0,9.95-3.64,9.95-7.92,0-3.64-2-6-6.39-7.66-3.23-1.28-4.59-2-4.59-3.63,0-1.29,1.18-2.47,3.6-2.47a10.44,10.44,0,0,1,5,1.3l1.44-4.8A15.53,15.53,0,0,0,54.59,0Z"/></g><g id="Grupo_184" data-name="Grupo 184"><path id="Icon_simple-python" data-name="Icon simple-python" class="cls-4" d="M99.49,9.51l1.44.32,1.16.42,1,.48.71.51.55.54.4.55.25.52.16.48.07.42,0,.32,0,.21v8.53l-.08,1-.2.88-.34.73-.42.61-.48.5-.52.4-.56.3-.56.22-.53.16-.48.11-.42.07-.33,0H90.73l-1.11.08-.94.22-.8.36-.66.43-.52.51-.44.56-.32.58-.24.59-.15.56-.11.51-.07.43,0,.33v4.9H81.77l-.33,0L81,37.72l-.51-.19-.56-.28-.58-.42-.57-.57-.56-.74-.51-.94-.45-1.17L76.92,32l-.23-1.67-.08-2,.1-1.95L77,24.75l.39-1.39.51-1.14.57-.91.64-.7.68-.53.67-.38.63-.26.58-.16.51-.08.38,0h.26l.1,0h13V17.87H86.59l0-4.39,0-.59.08-.55.17-.49.28-.45.4-.42.49-.37.61-.32.7-.28.82-.24L91,9.58l1-.16,1.13-.1,1.23-.06,1.35,0,2,.08ZM89.42,12.68l-.37.53-.13.65.13.66.37.54.53.35.65.14.66-.14.52-.35.37-.54.13-.66-.13-.65-.37-.53-.53-.35-.65-.14-.66.14Z"/><path id="Icon_simple-python-2" data-name="Icon simple-python-2" class="cls-5" d="M91.7,46.68l-1.44-.32-1.17-.42-.94-.47L87.43,45l-.54-.54-.4-.54-.26-.53-.16-.48L86,42.44l0-.32V33.38l.08-1,.21-.88.34-.73.41-.61.48-.49.53-.4L88.6,29l.56-.22.53-.16.48-.11.41-.07.34,0h9.54l1.1-.08.94-.22.8-.35.66-.44.53-.51.43-.56.32-.57.24-.6.16-.55.11-.51.06-.43,0-.34V18.31h3.56l.34.05.44.11.51.19.57.29.57.41.58.58.56.73.51.95.44,1.16.34,1.41.22,1.68.08,2-.09,2-.26,1.67-.38,1.39L113.33,34l-.58.91-.64.71-.67.52-.67.39-.64.25-.57.16L109,37l-.38,0h-.26l-.09,0h-13v1.33h9.34v4.4l0,.59-.08.54-.18.49-.27.46-.4.41-.49.37-.61.32-.71.29-.81.24-.93.19-1,.16L98,46.87l-1.23.07-1.34,0-2-.08Zm10.07-3.17.37-.52.12-.66-.12-.65-.37-.55-.53-.35-.66-.14-.65.14-.53.35-.37.55-.12.65L99,43l.37.52.53.35.66.15.65-.15Z"/></g><path id="Icon_simple-django" data-name="Icon simple-django" class="cls-6" d="M124,30.86h3.88v18a25.82,25.82,0,0,1-5,.53c-4.73,0-7.2-2.14-7.2-6.25s2.62-6.53,6.67-6.53a6.41,6.41,0,0,1,1.69.2Zm0,9a3.86,3.86,0,0,0-1.31-.2c-2,0-3.1,1.2-3.1,3.32s1.09,3.2,3.08,3.2a8.51,8.51,0,0,0,1.33-.1V39.9Zm10.05-3v9c0,3.1-.22,4.59-.9,5.87A6.21,6.21,0,0,1,130,54.59l-3.61-1.72a5.6,5.6,0,0,0,3.08-2.59c.55-1.11.73-2.4.73-5.77V36.85h3.87Zm-3.88-6h3.88v4H130.2Z"/></g></g></svg>