<svg xmlns="http://www.w3.org/2000/svg" viewBox="0 0 138 67.51"><defs><style>.cls-1{fill:#521268;}.cls-2{fill:#e369c7;}.cls-3{fill:#b71ea2;}.cls-4{fill:#7f1375;}</style></defs><g id="Capa_2" data-name="Capa 2"><g id="html_items"><g id="Grupo_202" data-name="Grupo 202"><rect id="Rectángulo_405" data-name="Rectángulo 405" class="cls-1" width="67.51" height="67.51" rx="9"/><path id="Icon_simple-adobexd" data-name="Icon simple-adobexd" class="cls-2" d="M26.65,32.3l7.83,15c.14.23.05.45-.17.45H29.45a.55.55,0,0,1-.59-.36c-1.79-3.69-3.61-7.38-5.48-11.35h-.05c-1.68,3.75-3.52,7.69-5.31,11.37a.53.53,0,0,1-.51.31H12.9c-.28,0-.3-.22-.16-.39l7.65-14.59L13,18a.22.22,0,0,1,0-.32.27.27,0,0,1,.19-.08H18a.46.46,0,0,1,.51.31c1.76,3.69,3.54,7.49,5.22,11.21h.06c1.62-3.69,3.41-7.52,5.14-11.18.14-.22.22-.36.5-.36h4.5c.23,0,.31.17.17.39Zm9.2,4.55c0-6.51,4.33-11.59,11.2-11.59a11.81,11.81,0,0,1,1.46,0v-7.4a.27.27,0,0,1,.28-.28H53.2c.23,0,.28.08.28.22V43.51a21,21,0,0,0,.14,2.74c0,.16,0,.22-.22.3a16.59,16.59,0,0,1-7.16,1.62C40.18,48.2,35.85,44.45,35.85,36.85ZM48.51,29.7a4.29,4.29,0,0,0-1.62-.28c-3.52,0-6,2.71-6,7.21,0,5.14,2.51,7.21,5.67,7.21a5.28,5.28,0,0,0,1.93-.31Z"/></g><path id="Icon_material-web" data-name="Icon material-web" class="cls-3" d="M132.48,4H88.27a5.52,5.52,0,0,0-5.5,5.52l0,33.16a5.55,5.55,0,0,0,5.53,5.52h44.21A5.54,5.54,0,0,0,138,42.65V9.49A5.54,5.54,0,0,0,132.48,4ZM118.66,42.65H88.27v-11h30.39Zm0-13.82H88.27v-11h30.39Zm13.82,13.82H121.42V17.78h11.06Z"/><path id="Icon_material-touch-app" data-name="Icon material-touch-app" class="cls-4" d="M100.56,40.33,104,35a4.22,4.22,0,0,1,7.09,4.57l-3.42,5.3a7.59,7.59,0,1,0-7.72-7.47A7.81,7.81,0,0,0,100.56,40.33Zm9.72,15.57-4.37-7.36a2.27,2.27,0,0,0-.66-.65l-1.08-.7,5.49-8.51a2.53,2.53,0,0,0-4.26-2.74L95.58,51.17,91.37,47a2.66,2.66,0,0,0-.31-.26,1.87,1.87,0,0,0-1.42-.25l-1.86.41,2.49,11.53A2.54,2.54,0,0,0,91.37,60L101,66.24a2.45,2.45,0,0,0,3.21-.5l5.9-6.79a2.43,2.43,0,0,0,.18-3.05Z"/></g></g></svg>