<svg xmlns="http://www.w3.org/2000/svg" viewBox="0 0 300 300"><defs><style>.cls-1,.cls-2,.cls-3{fill:none;}.cls-2,.cls-3{stroke:#9a9a9a;}.cls-2{stroke-width:7.89px;}.cls-3{stroke-miterlimit:10;stroke-width:8.88px;}.cls-4{fill:#9a9a9a;}</style></defs><g id="Capa_2" data-name="Capa 2"><g id="Recursos"><g id="Logo_negativo_2.0" data-name="Logo negativo 2.0"><g id="Grupo_179" data-name="Grupo 179"><g id="Grupo_29" data-name="Grupo 29"><g id="Rectángulo_5-2" data-name="Rectángulo 5-2"><path class="cls-1" d="M150,0h0A150,150,0,0,1,300,150h0A150,150,0,0,1,150,300h0A150,150,0,0,1,0,150H0A150,150,0,0,1,150,0Z"/><path class="cls-2" d="M150,4h0A146.05,146.05,0,0,1,296.05,150h0A146.05,146.05,0,0,1,150,296.05h0A146.05,146.05,0,0,1,4,150H4A146.05,146.05,0,0,1,150,4Z"/></g></g><path id="Trazado_15" data-name="Trazado 15" class="cls-3" d="M80.26,53V233.8h42.5"/><path id="Trazado_16" data-name="Trazado 16" class="cls-3" d="M163.29,233.8c48.8,0,88.37-40,88.37-88.78a88.37,88.37,0,0,0-88.37-88.36v88.46"/></g><circle id="Elipse_8" data-name="Elipse 8" class="cls-4" cx="238.88" cy="229.08" r="7.65"/></g></g></g></svg>