<svg xmlns="http://www.w3.org/2000/svg" viewBox="0 0 63.55 63.55"><defs><style>.cls-1{fill:#cc147e;fill-rule:evenodd;}</style></defs><g id="Capa_2" data-name="Capa 2"><g id="html_items"><g id="instagram"><path id="Trazado_3" data-name="Trazado 3" class="cls-1" d="M31.77,5.65c8.48,0,9.54,0,12.72.35a16.65,16.65,0,0,1,6,1.06,12.45,12.45,0,0,1,6,6,16.39,16.39,0,0,1,1,6c0,3.18.36,4.24.36,12.71s0,9.53-.36,12.71a16.39,16.39,0,0,1-1,6,12.45,12.45,0,0,1-6,6,16.23,16.23,0,0,1-6,1.06c-3.18,0-4.24.35-12.71.35s-9.54,0-12.71-.35a16.16,16.16,0,0,1-6-1.06,12.37,12.37,0,0,1-6-6,16.19,16.19,0,0,1-1.06-6c0-3.18-.36-4.24-.36-12.71s0-9.53.36-12.71a16.19,16.19,0,0,1,1.06-6A12.73,12.73,0,0,1,9.53,9.53a6,6,0,0,1,3.53-2.47,16.65,16.65,0,0,1,6-1.06c3.18-.35,4.24-.35,12.71-.35m0-5.65C23.3,0,21.89,0,18.71.35a22.21,22.21,0,0,0-7.77,1.41A14,14,0,0,0,5.3,5.3,13.87,13.87,0,0,0,1.77,11C.71,13.06.35,15.18.35,18.71,0,21.89,0,23.3,0,31.77s0,9.89.35,13.07A22.11,22.11,0,0,0,1.76,52.6,13.86,13.86,0,0,0,5.3,58.26,14,14,0,0,0,11,61.79a21.89,21.89,0,0,0,7.76,1.41c3.18.35,4.59.35,13.06.35s9.89,0,13.07-.35a21.67,21.67,0,0,0,7.76-1.41,14.81,14.81,0,0,0,9.18-9.18,21.51,21.51,0,0,0,1.42-7.77c0-3.53.35-4.59.35-13.06s0-9.89-.35-13.07A21.67,21.67,0,0,0,61.79,11,13.81,13.81,0,0,0,58.26,5.3a13.87,13.87,0,0,0-5.65-3.53A22,22,0,0,0,44.84.35C41.66,0,40.25,0,31.77,0m0,15.53A16,16,0,0,0,15.53,31.25v.52A16.25,16.25,0,1,0,31.78,15.53h0m0,26.84A10.41,10.41,0,0,1,21.18,32.16v-.39A10.41,10.41,0,0,1,31.39,21.18h.38a10.42,10.42,0,0,1,10.6,10.21v.38a10.41,10.41,0,0,1-10.21,10.6h-.39m17-31.43a3.89,3.89,0,1,0,3.89,3.89h0a3.93,3.93,0,0,0-3.89-3.89"/></g></g></g></svg>