<svg xmlns="http://www.w3.org/2000/svg" viewBox="0 0 46.2 46.2"><defs><style>.cls-1{fill:#fff;fill-rule:evenodd;}</style></defs><g id="Capa_2" data-name="Capa 2"><g id="html_items"><g id="instagram"><path id="Trazado_3" data-name="Trazado 3" class="cls-1" d="M23.1,4.15c6.14,0,6.91,0,9.22.26a12,12,0,0,1,4.35.76A9.06,9.06,0,0,1,41,9.53a12,12,0,0,1,.76,4.35c0,2.3.26,3.08.26,9.22s0,6.92-.26,9.22A12,12,0,0,1,41,36.68,9,9,0,0,1,36.67,41a11.78,11.78,0,0,1-4.35.77c-2.3,0-3.08.25-9.22.25a72.31,72.31,0,0,1-9.22-.25A11.79,11.79,0,0,1,9.52,41a9,9,0,0,1-4.35-4.35,11.79,11.79,0,0,1-.77-4.36c0-2.3-.25-3.07-.25-9.22a72.51,72.51,0,0,1,.25-9.22,11.78,11.78,0,0,1,.77-4.35A9.15,9.15,0,0,1,7,7a4.35,4.35,0,0,1,2.56-1.8,12.22,12.22,0,0,1,4.36-.77,72.31,72.31,0,0,1,9.22-.25m0-4.1A76.91,76.91,0,0,0,13.62.3,15.94,15.94,0,0,0,8,1.33a10,10,0,0,0-4.1,2.56A10,10,0,0,0,1.33,8a11.61,11.61,0,0,0-1,5.63A76.91,76.91,0,0,0,.05,23.1,77,77,0,0,0,.3,32.58a15.94,15.94,0,0,0,1,5.63,10,10,0,0,0,2.56,4.1A10.1,10.1,0,0,0,8,44.87a15.71,15.71,0,0,0,5.63,1,75,75,0,0,0,9.48.26,75.05,75.05,0,0,0,9.48-.26,15.71,15.71,0,0,0,5.63-1,10.74,10.74,0,0,0,6.66-6.66,15.71,15.71,0,0,0,1-5.63c0-2.56.26-3.33.26-9.48a74.84,74.84,0,0,0-.26-9.47,15.73,15.73,0,0,0-1-5.64,10.17,10.17,0,0,0-2.56-4.1,10.17,10.17,0,0,0-4.1-2.56,15.73,15.73,0,0,0-5.64-1A74.84,74.84,0,0,0,23.1.05m0,11.27a11.59,11.59,0,0,0-11.78,11.4,2.41,2.41,0,0,0,0,.38A11.78,11.78,0,1,0,23.1,11.32m0,19.46a7.55,7.55,0,0,1-7.69-7.41V23.1a7.54,7.54,0,0,1,7.41-7.68h.28a7.54,7.54,0,0,1,7.68,7.4v.28a7.55,7.55,0,0,1-7.41,7.68H23.1M35.39,8a2.82,2.82,0,1,0,2.82,2.82A2.85,2.85,0,0,0,35.39,8"/></g></g></g></svg>