<svg xmlns="http://www.w3.org/2000/svg" viewBox="0 0 46.49 46"><defs><style>.cls-1{fill:none;}.cls-2{fill:#fff;fill-rule:evenodd;}</style></defs><g id="Capa_2" data-name="Capa 2"><g id="html_items"><g id="twitter"><rect id="Rectángulo_393" data-name="Rectángulo 393" class="cls-1" x="0.49" width="46" height="46"/><path id="Trazado_2" data-name="Trazado 2" class="cls-2" d="M14.59,43.11c17.42,0,26.89-14.34,26.89-26.89V14.94a20.66,20.66,0,0,0,4.61-4.86,21.24,21.24,0,0,1-5.38,1.53,9.92,9.92,0,0,0,4.1-5.12,23.48,23.48,0,0,1-5.89,2.3A9.15,9.15,0,0,0,32,5.72a9.63,9.63,0,0,0-9.48,9.48,4.94,4.94,0,0,0,.26,2.05,26.5,26.5,0,0,1-19.47-10A9.86,9.86,0,0,0,2,12.12a10.16,10.16,0,0,0,4.1,7.94,8.58,8.58,0,0,1-4.35-1.28h0A9.35,9.35,0,0,0,9.47,28a7.89,7.89,0,0,1-2.56.26A4.36,4.36,0,0,1,5.12,28a9.69,9.69,0,0,0,9,6.66A19.36,19.36,0,0,1,2.3,38.76,7.13,7.13,0,0,1,0,38.51a24.26,24.26,0,0,0,14.6,4.61"/></g></g></g></svg>