<svg xmlns="http://www.w3.org/2000/svg" viewBox="0 0 64.36 65"><defs><style>.cls-1{fill:none;}.cls-2{fill:#12d8d5;fill-rule:evenodd;}</style></defs><g id="Capa_2" data-name="Capa 2"><g id="html_items"><g id="twitter"><rect id="Rectángulo_393" data-name="Rectángulo 393" class="cls-1" x="0.36" width="64" height="65"/><path id="Trazado_2" data-name="Trazado 2" class="cls-2" d="M20.12,60.8c24,0,37.07-19.77,37.07-37.07V22a28.55,28.55,0,0,0,6.36-6.71,29.49,29.49,0,0,1-7.41,2.12,13.83,13.83,0,0,0,5.65-7.06,32.72,32.72,0,0,1-8.12,3.18,12.61,12.61,0,0,0-9.54-4.24A13.26,13.26,0,0,0,31.07,22.31a7,7,0,0,0,.35,2.83A36.52,36.52,0,0,1,4.59,11.37a13.48,13.48,0,0,0-1.76,6.71A14,14,0,0,0,8.47,29a11.91,11.91,0,0,1-6-1.76h0A12.92,12.92,0,0,0,13.07,40a10.83,10.83,0,0,1-3.54.35A6,6,0,0,1,7.06,40a13.38,13.38,0,0,0,12.36,9.18A26.64,26.64,0,0,1,3.18,54.8,9.49,9.49,0,0,1,0,54.44,33.25,33.25,0,0,0,20.12,60.8"/></g></g></g></svg>