<svg xmlns="http://www.w3.org/2000/svg" viewBox="0 0 45.69 45.69"><defs><style>.cls-1{fill:#14cc92;}</style></defs><g id="Capa_2" data-name="Capa 2"><g id="html_items"><path id="Icon_simple-whatsapp" data-name="Icon simple-whatsapp" class="cls-1" d="M33.31,27.38c-.57-.29-3.36-1.65-3.88-1.84s-.9-.29-1.28.29-1.47,1.83-1.8,2.21-.67.4-1.23.14a15.39,15.39,0,0,1-4.58-2.83,17.43,17.43,0,0,1-3.16-3.94c-.33-.57,0-.88.25-1.17s.57-.66.86-1a5,5,0,0,0,.56-.94,1,1,0,0,0,0-1c-.15-.29-1.28-3.09-1.76-4.2s-.93-1-1.28-1-.7,0-1.09,0a2.13,2.13,0,0,0-1.51.68,6.35,6.35,0,0,0-2,4.72c0,2.77,2,5.45,2.32,5.85s4,6.09,9.71,8.54c1.36.57,2.42.92,3.24,1.2a7.89,7.89,0,0,0,3.58.23c1.1-.17,3.37-1.37,3.84-2.71a4.7,4.7,0,0,0,.34-2.72c-.14-.25-.51-.4-1.08-.65M23,41.4h0a18.93,18.93,0,0,1-9.62-2.63l-.69-.4L5.48,40.23,7.4,33.29,7,32.57A18.88,18.88,0,0,1,36.35,9.28a18.64,18.64,0,0,1,5.53,13.31A18.9,18.9,0,0,1,23,41.41M39.06,6.57A23.09,23.09,0,0,0,22.93,0,22.63,22.63,0,0,0,3.23,34L0,45.69l12.06-3.15A22.91,22.91,0,0,0,22.93,45.3h0A22.73,22.73,0,0,0,45.69,22.65,22.45,22.45,0,0,0,39,6.64"/></g></g></svg>